<svg width="170" height="59" viewBox="0 0 170 59" fill="none" xmlns="http://www.w3.org/2000/svg">
<g clip-path="url(#clip0)">
<path d="M38.3895 56.7021C38.344 56.7021 38.1401 56.7021 37.7826 56.7021L37.3148 56.7212V56.6019C37.5859 56.6019 37.773 56.5303 37.8714 56.3848C37.9506 56.2655 37.9913 56.065 37.9913 55.7811V53.3736C37.9913 53.0753 37.8978 52.8367 37.7083 52.6554C37.5188 52.474 37.2765 52.3834 36.979 52.3834C36.4704 52.3834 36.0075 52.5981 35.59 53.0276V55.7811C35.59 56.0054 35.6188 56.1867 35.6788 56.3251C35.758 56.516 35.9115 56.6114 36.137 56.6114H36.2857V56.7212L35.211 56.7021C35.1582 56.7021 34.9543 56.7021 34.6041 56.7021L34.1363 56.7212L34.1267 56.6019C34.3834 56.6019 34.5561 56.5542 34.6473 56.4587C34.736 56.3633 34.7888 56.1891 34.8032 55.9386V55.7811V53.3235C34.8032 52.9274 34.6929 52.7293 34.4698 52.7293C34.3714 52.7293 34.2443 52.7484 34.0859 52.789V52.6697C34.6977 52.4263 35.199 52.202 35.59 51.9968V52.9178C36.0818 52.3309 36.6647 52.0374 37.3436 52.0374C37.7754 52.0374 38.1209 52.1567 38.3848 52.3929C38.6462 52.6291 38.7782 52.9584 38.7782 53.3807V55.7739C38.7782 56.0436 38.8022 56.2273 38.8477 56.3275C38.9269 56.4922 39.0828 56.5828 39.3155 56.5947L39.4643 56.6043V56.7236C39.3707 56.7236 39.1692 56.7164 38.8573 56.7045H38.3895V56.7021Z" fill="black"/>
<path d="M45.1304 54.1276C44.9121 54.1801 44.6914 54.2493 44.4731 54.3352C44.0149 54.5189 43.7175 54.6644 43.5759 54.7718C43.2761 54.989 43.1273 55.2777 43.1273 55.6332C43.1273 56.2536 43.4032 56.5637 43.955 56.5637C44.3268 56.5637 44.7178 56.3514 45.1304 55.9291V54.1276ZM45.3511 56.9002C45.2648 56.7737 45.1952 56.5972 45.1424 56.3657C45.128 56.3132 45.1088 56.2202 45.0824 56.0889C44.5715 56.5972 44.0365 56.8525 43.48 56.8525C42.9426 56.8525 42.5804 56.6186 42.3957 56.1486C42.3285 55.9839 42.2949 55.8241 42.2949 55.6714C42.2949 55.3469 42.4916 55.0677 42.8826 54.8267C43.0962 54.7002 43.4464 54.5595 43.9382 54.3996L45.1328 54.0226V53.2376C45.1328 52.9346 45.0704 52.6864 44.9433 52.4931C44.797 52.2688 44.5787 52.1567 44.286 52.1567C44.0725 52.1567 43.8734 52.2164 43.6887 52.3357C43.4752 52.4669 43.3696 52.6387 43.3696 52.8439C43.3696 52.9703 43.3984 53.1302 43.4584 53.3235L42.7411 53.5525C42.7219 53.5001 42.7051 53.4165 42.6907 53.3044C42.6907 52.9417 42.9426 52.6268 43.4464 52.3643C43.8854 52.1328 44.3124 52.0183 44.7322 52.0183C45.0776 52.0183 45.3535 52.1209 45.5646 52.3261C45.7733 52.5313 45.8789 52.8057 45.8789 53.1493V55.7334C45.8789 56.1032 46.0156 56.287 46.2867 56.287C46.3658 56.287 46.4786 56.2536 46.6249 56.1891L46.6537 56.2679L45.3511 56.9002Z" fill="black"/>
<path d="M51.7945 56.6735L51.665 56.843L51.485 56.8525C51.2931 56.8668 51.0892 56.8263 50.8781 56.7332C50.2472 56.4707 49.933 56.0126 49.933 55.3636V52.3452H48.9878V52.1878H49.4364C49.6763 52.1806 49.9186 52.0279 50.1633 51.7296C50.3816 51.4505 50.5111 51.1808 50.5519 50.9231L50.6022 50.5939H50.7126V52.1878H52.2455L52.1951 52.3452H50.7102V55.4066C50.7102 55.5449 50.7198 55.6475 50.739 55.7144C50.7726 55.9267 50.8709 56.1033 51.0317 56.2441C51.1948 56.3872 51.3819 56.4564 51.5954 56.4564C51.7417 56.4564 51.8737 56.423 51.9936 56.3562C52.0392 56.33 52.1567 56.2512 52.3414 56.1176C52.104 56.3228 51.9216 56.5065 51.7945 56.6735Z" fill="black"/>
<path d="M58.876 56.8906C58.7225 56.726 58.6481 56.4683 58.6481 56.1175L58.4394 56.2655C58.2475 56.4039 58.0052 56.5566 57.7125 56.7212C57.4871 56.8143 57.2208 56.8596 56.9161 56.8596C56.4771 56.8596 56.1269 56.7331 55.8654 56.4778C55.6039 56.2225 55.472 55.8789 55.472 55.4423V53.3235C55.472 52.9274 55.3568 52.7293 55.1241 52.7293C55.0306 52.7293 54.9058 52.7484 54.7451 52.789V52.6697C55.2225 52.4907 55.7239 52.2665 56.2492 51.9968V55.4542C56.2492 55.805 56.338 56.0841 56.5179 56.2965C56.6978 56.5089 56.9593 56.6138 57.3047 56.6138C57.8301 56.6138 58.2715 56.3896 58.6289 55.941V53.2161C58.6289 52.8916 58.5138 52.7317 58.2811 52.7317C58.1875 52.7317 58.0628 52.7508 57.9021 52.7914V52.6697L58.6601 52.369C58.8736 52.2808 59.1207 52.1567 59.4062 51.9968V55.4829C59.4062 56.0197 59.5429 56.287 59.814 56.287C59.9075 56.287 60.0203 56.2535 60.1522 56.1891L60.1714 56.2583L58.876 56.8906Z" fill="black"/>
<path d="M65.6026 52.5314C65.3531 52.5314 65.1108 52.6316 64.8757 52.8344C64.6406 53.0348 64.5231 53.2615 64.5231 53.512V55.9029C64.5231 56.3634 64.7509 56.5948 65.2091 56.5948V56.7237C65.1228 56.7237 64.9213 56.7165 64.6022 56.7046H64.1248C64.0793 56.7046 63.8754 56.7046 63.5179 56.7046L63.0501 56.7237V56.5948C63.5083 56.5948 63.7362 56.318 63.7362 55.7621V53.3259C63.7362 52.9298 63.6259 52.7318 63.4028 52.7318C63.3044 52.7318 63.1773 52.7509 63.019 52.7914L62.9998 52.6626C63.5539 52.4646 64.0625 52.2426 64.5231 51.9993V53.3068L64.691 52.9394C65.0556 52.3381 65.4706 52.0374 65.9384 52.0374C66.0919 52.0374 66.2311 52.0613 66.3654 52.1066V53.0372C66.2215 52.7008 65.9648 52.5314 65.6026 52.5314Z" fill="black"/>
<path d="M72.3722 53.9892C72.3722 53.5215 72.2834 53.1183 72.1035 52.7818C71.878 52.3667 71.5493 52.1567 71.1175 52.1567C70.7601 52.1567 70.4435 52.3547 70.1724 52.7508C69.9277 53.0944 69.791 53.4571 69.7646 53.8413L69.7454 54.118H72.3746V53.9892H72.3722ZM73.1974 54.2851H69.743V54.4235L69.7526 54.5332C69.8053 55.1464 69.9853 55.6523 70.2899 56.0484C70.6426 56.5112 71.1103 56.7427 71.6933 56.7427C72.0723 56.7427 72.5041 56.6019 72.9887 56.318L73.0295 56.4063C72.5593 56.7093 72.0315 56.862 71.4462 56.862C70.6953 56.862 70.086 56.6329 69.6134 56.1724C69.1433 55.7143 68.9058 55.1106 68.9058 54.3638C68.9058 53.8222 69.0449 53.3497 69.3232 52.9465C69.623 52.5098 70.026 52.2378 70.537 52.1233C70.7769 52.0708 71.012 52.0446 71.2447 52.0446C71.8756 52.0446 72.3626 52.2498 72.708 52.6578C73.0343 53.0419 73.195 53.5525 73.195 54.192V54.2851H73.1974Z" fill="black"/>
<path d="M81.6127 56.6735L81.4832 56.843L81.3033 56.8525C81.1114 56.8668 80.9075 56.8263 80.6964 56.7332C80.0654 56.4707 79.7512 56.0126 79.7512 55.3636V52.3452H78.806V52.1878H79.2546C79.4945 52.1806 79.7368 52.0279 79.9815 51.7296C80.1998 51.4505 80.3293 51.1808 80.3701 50.9231L80.4205 50.5939H80.5308V52.1878H82.0637L82.0133 52.3452H80.5284V55.4066C80.5284 55.5449 80.538 55.6475 80.5572 55.7144C80.5908 55.9267 80.6892 56.1033 80.8499 56.2441C81.013 56.3872 81.2001 56.4564 81.4136 56.4564C81.56 56.4564 81.6919 56.423 81.8118 56.3562C81.8574 56.33 81.975 56.2512 82.1597 56.1176C81.9222 56.3228 81.7399 56.5065 81.6127 56.6735Z" fill="black"/>
<path d="M86.852 52.1662C86.3746 52.1662 85.9884 52.3643 85.6957 52.758C85.4294 53.1135 85.2975 53.5382 85.2975 54.0345C85.2975 54.674 85.4438 55.2538 85.7365 55.7739C86.0939 56.4062 86.5737 56.7236 87.171 56.7236C87.6964 56.7236 88.0874 56.4898 88.3465 56.0221C88.5528 55.6522 88.6559 55.1846 88.6559 54.6191C88.6559 53.7625 88.3968 53.0896 87.8787 52.6029C87.574 52.3118 87.231 52.1662 86.852 52.1662ZM86.9935 56.8596C86.2834 56.8596 85.6957 56.6329 85.2303 56.182C84.7649 55.7286 84.5322 55.1512 84.5322 54.4425C84.5322 53.71 84.7649 53.1278 85.2303 52.6983C85.6957 52.2688 86.3002 52.0541 87.0439 52.0541C87.7419 52.0541 88.3201 52.2664 88.7807 52.6888C89.2413 53.1111 89.474 53.6694 89.474 54.3638C89.474 55.0844 89.2413 55.6785 88.7759 56.1509C88.3105 56.6234 87.7156 56.8596 86.9935 56.8596Z" fill="black"/>
<path d="M98.0332 52.2855C97.5966 52.2855 97.1768 52.4931 96.7738 52.9107V56.3967C97.0401 56.6091 97.3735 56.7141 97.779 56.7141C98.3763 56.7141 98.8369 56.4444 99.1631 55.9028C99.4414 55.4471 99.5805 54.9054 99.5805 54.2779C99.5805 53.7363 99.4606 53.2853 99.2231 52.9202C98.9448 52.4955 98.549 52.2855 98.0332 52.2855ZM97.9445 56.831C97.575 56.831 97.1816 56.7355 96.7738 56.5446V58.0765C96.7738 58.3676 96.8146 58.5704 96.8938 58.6826C96.9873 58.8353 97.172 58.9116 97.4503 58.9116V58.9999L96.3756 58.9593C96.3228 58.9593 96.1189 58.9665 95.7687 58.9784L95.3009 58.9975V58.8997C95.5672 58.8997 95.7495 58.8305 95.8478 58.6921C95.9198 58.5871 95.963 58.3915 95.9774 58.1075V57.8904V53.3235C95.9774 52.9274 95.8694 52.7293 95.6511 52.7293C95.596 52.7293 95.4712 52.746 95.2793 52.7795V52.6697C95.7543 52.4907 96.2509 52.2665 96.7738 51.9968V52.7985C97.184 52.2903 97.6974 52.035 98.3187 52.035C98.9664 52.035 99.4702 52.245 99.8348 52.6649C100.199 53.0849 100.379 53.6217 100.379 54.2755C100.379 54.9961 100.154 55.5974 99.7029 56.0794C99.2447 56.5804 98.6593 56.831 97.9445 56.831Z" fill="black"/>
<path d="M106.842 53.9892C106.842 53.5215 106.753 53.1183 106.573 52.7818C106.348 52.3667 106.019 52.1567 105.587 52.1567C105.23 52.1567 104.913 52.3547 104.642 52.7508C104.397 53.0944 104.261 53.4571 104.234 53.8413L104.215 54.118H106.844V53.9892H106.842ZM107.667 54.2851H104.213V54.4235L104.222 54.5332C104.275 55.1464 104.455 55.6523 104.76 56.0484C105.112 56.5112 105.58 56.7427 106.163 56.7427C106.542 56.7427 106.974 56.6019 107.458 56.318L107.499 56.4063C107.029 56.7093 106.501 56.862 105.916 56.862C105.165 56.862 104.556 56.6329 104.083 56.1724C103.613 55.7143 103.375 55.1106 103.375 54.3638C103.375 53.8222 103.515 53.3497 103.793 52.9465C104.093 52.5098 104.496 52.2378 105.007 52.1233C105.247 52.0708 105.482 52.0446 105.714 52.0446C106.345 52.0446 106.832 52.2498 107.178 52.6578C107.504 53.0419 107.665 53.5525 107.665 54.192V54.2851H107.667Z" fill="black"/>
<path d="M112.957 52.1662C112.479 52.1662 112.093 52.3643 111.801 52.758C111.534 53.1135 111.402 53.5382 111.402 54.0345C111.402 54.674 111.549 55.2538 111.841 55.7739C112.199 56.4062 112.679 56.7236 113.276 56.7236C113.801 56.7236 114.192 56.4898 114.451 56.0221C114.658 55.6522 114.761 55.1846 114.761 54.6191C114.761 53.7625 114.502 53.0896 113.984 52.6029C113.676 52.3118 113.336 52.1662 112.957 52.1662ZM113.096 56.8596C112.386 56.8596 111.798 56.6329 111.333 56.182C110.867 55.7286 110.635 55.1512 110.635 54.4425C110.635 53.71 110.867 53.1278 111.333 52.6983C111.798 52.2688 112.403 52.0541 113.146 52.0541C113.844 52.0541 114.423 52.2664 114.883 52.6888C115.344 53.1111 115.576 53.6694 115.576 54.3638C115.576 55.0844 115.344 55.6785 114.878 56.1509C114.415 56.6234 113.82 56.8596 113.096 56.8596Z" fill="black"/>
<path d="M121.25 52.2855C120.813 52.2855 120.393 52.4931 119.99 52.9107V56.3967C120.257 56.6091 120.59 56.7141 120.995 56.7141C121.593 56.7141 122.053 56.4444 122.38 55.9028C122.658 55.4471 122.797 54.9054 122.797 54.2779C122.797 53.7363 122.677 53.2853 122.44 52.9202C122.161 52.4955 121.765 52.2855 121.25 52.2855ZM121.161 56.831C120.791 56.831 120.398 56.7355 119.99 56.5446V58.0765C119.99 58.3676 120.031 58.5704 120.11 58.6826C120.204 58.8353 120.388 58.9116 120.667 58.9116V58.9999L119.592 58.9593C119.539 58.9593 119.335 58.9665 118.985 58.9784L118.517 58.9975V58.8997C118.784 58.8997 118.966 58.8305 119.064 58.6921C119.136 58.5871 119.179 58.3915 119.194 58.1075V57.8904V53.3235C119.194 52.9274 119.086 52.7293 118.868 52.7293C118.812 52.7293 118.688 52.746 118.496 52.7795V52.6697C118.971 52.4907 119.467 52.2665 119.99 51.9968V52.7985C120.4 52.2903 120.914 52.035 121.535 52.035C122.183 52.035 122.687 52.245 123.051 52.6649C123.416 53.0849 123.596 53.6217 123.596 54.2755C123.596 54.9961 123.37 55.5974 122.919 56.0794C122.461 56.5804 121.876 56.831 121.161 56.831Z" fill="black"/>
<path d="M127.221 55.5949V50.076C127.221 49.6871 127.098 49.4914 126.851 49.4914C126.794 49.4914 126.683 49.5081 126.52 49.5415L126.482 49.4222C126.976 49.2433 127.487 49.0261 128.015 48.7684V55.8693C128.015 56.3585 128.24 56.6019 128.691 56.6019V56.7116L127.487 56.683C127.209 56.6758 126.89 56.6854 126.532 56.7116L126.542 56.5923C126.966 56.5923 127.192 56.3776 127.218 55.9505V55.5949H127.221Z" fill="black"/>
<path d="M135.087 53.9892C135.087 53.5215 134.998 53.1183 134.818 52.7818C134.592 52.3667 134.264 52.1567 133.832 52.1567C133.475 52.1567 133.158 52.3547 132.887 52.7508C132.642 53.0944 132.505 53.4571 132.479 53.8413L132.46 54.118H135.089V53.9892H135.087ZM135.914 54.2851H132.46V54.4235L132.469 54.5332C132.522 55.1464 132.702 55.6523 133.007 56.0484C133.359 56.5112 133.827 56.7427 134.41 56.7427C134.789 56.7427 135.221 56.6019 135.705 56.318L135.746 56.4063C135.276 56.7093 134.748 56.862 134.163 56.862C133.412 56.862 132.803 56.6329 132.33 56.1724C131.86 55.7143 131.623 55.1106 131.623 54.3638C131.623 53.8222 131.762 53.3497 132.04 52.9465C132.34 52.5098 132.743 52.2378 133.254 52.1233C133.494 52.0708 133.729 52.0446 133.961 52.0446C134.592 52.0446 135.079 52.2498 135.425 52.6578C135.751 53.0419 135.912 53.5525 135.912 54.192V54.2851H135.914Z" fill="black"/>
<path fill-rule="evenodd" clip-rule="evenodd" d="M73.2742 1.90172C67.776 5.74565 65.9432 13.183 58.8233 9.94749C66.4614 9.43449 66.8044 4.60512 71.8037 2.03056C67.6464 0.334079 61.0399 1.477 59.2047 6.87664C60.7592 5.56908 63.2085 2.93249 69.6015 2.70343C63.5995 4.03246 60.0083 7.13672 57.8661 9.72082C56.5755 1.07614 64.8277 -2.53157 73.2742 1.90172Z" fill="#75B051"/>
<path d="M9.5404 5.43304C8.79674 5.43304 7.86357 5.53564 6.75768 5.74323V18.1054C7.97392 18.5182 9.16617 18.7234 10.332 18.7234C14.2422 18.7234 16.1973 16.7406 16.1973 12.7749C16.1973 10.5607 15.6528 8.80931 14.5733 7.52084C13.4122 6.12977 11.7354 5.43304 9.5404 5.43304ZM22.6815 33.2473C19.3927 33.2473 16.5188 30.8899 14.0599 26.1774L11.7306 21.737C11.3492 20.9901 10.9917 20.489 10.6631 20.2314C10.3008 19.8448 9.77069 19.5871 9.05103 19.4583L6.76008 19.0717V28.1507C6.76008 29.7732 6.90881 30.8302 7.21347 31.3194C7.64767 32.0137 8.56645 32.3621 9.9842 32.3621V32.7104L5.01369 32.5935C4.70183 32.5935 3.74467 32.6126 2.13981 32.6508L0 32.708V32.2833C1.42494 32.2833 2.35571 31.923 2.79711 31.2024C3.13296 30.6608 3.30088 29.6253 3.30088 28.1053V9.26504C3.30088 8.05531 3.18333 7.1844 2.95064 6.6714C2.58841 5.84821 1.84955 5.43543 0.73646 5.43543H0V4.93435H4.7762C5.37112 4.93435 6.26591 4.90334 7.45576 4.83891C8.64801 4.77449 9.5404 4.74347 10.1353 4.74347C16.5044 4.74347 19.6901 7.11282 19.6901 11.8444C19.6901 13.622 19.2103 15.1157 18.2532 16.3254C17.296 17.5303 15.9478 18.3273 14.2134 18.7138L13.3594 18.9071C14.3238 20.0142 15.281 21.3934 16.2213 23.0397L18.8097 27.6424C20.6929 30.971 22.5976 32.6317 24.5071 32.6317C24.6894 32.6317 24.8309 32.6317 24.9341 32.6317V32.992C24.236 33.1638 23.4852 33.2473 22.6815 33.2473Z" fill="black"/>
<path d="M28.5084 32.6293C28.3021 32.6293 27.5105 32.6293 26.1383 32.6293L24.3128 32.7057V32.2046C25.2459 32.2046 25.9176 32.0113 26.3326 31.6248C26.6445 31.3408 26.8364 30.6584 26.9156 29.5776L26.9539 28.9977V19.5728C26.9539 18.0267 26.5149 17.256 25.6346 17.256C25.4019 17.256 24.8957 17.3204 24.1208 17.4492L24.1592 16.9863C26.4886 16.0844 28.4317 15.223 29.9861 14.3975V27.8286C29.9861 29.2769 30.0509 30.217 30.1805 30.656C30.4659 31.6415 31.1256 32.1688 32.1619 32.2475L32.7449 32.2857L32.7065 32.7104L28.5084 32.6293ZM28.5084 10.8041C27.8607 10.8041 27.3306 10.5726 26.9156 10.1097C26.5006 9.64683 26.2942 9.09327 26.2942 8.44903C26.2942 7.85729 26.5149 7.32759 26.9539 6.86469C27.3953 6.4018 27.9111 6.17035 28.5084 6.17035C29.1297 6.17035 29.6551 6.39464 30.0821 6.8456C30.5091 7.29657 30.7226 7.83104 30.7226 8.44903C30.7226 9.09327 30.5163 9.64683 30.1013 10.1097C29.6863 10.5702 29.1561 10.8041 28.5084 10.8041Z" fill="black"/>
<path d="M34.8391 32.7462L46.9967 15.4783H41.52C39.9152 15.4783 38.8021 15.6454 38.1808 15.9794C37.274 16.4686 36.6911 17.4468 36.432 18.9143C36.3792 19.2244 36.3672 19.4678 36.3936 19.6492H36.0817V14.9367H50.7438L38.5862 32.2046H44.1732C48.4912 32.2046 50.6454 30.8135 50.6454 28.0314H50.9165V32.7438H34.8391V32.7462Z" fill="black"/>
<path d="M108.497 32.5912C107.902 32.5649 107.079 32.5792 106.024 32.6293C104.858 32.7057 104.05 32.7463 103.584 32.7463V32.3215C104.956 32.3215 105.863 31.9875 106.302 31.317C106.638 30.8016 106.808 29.7971 106.808 28.3034V19.2245H90.4959V29.1004C90.4959 30.291 90.7357 31.1285 91.2155 31.6176C91.6953 32.1139 92.5301 32.3573 93.72 32.3573V32.7439L88.4568 32.5888L83.8149 32.7439V32.3573C85.2639 32.3573 86.209 32.009 86.6504 31.3146C86.9863 30.773 87.1566 29.7112 87.1566 28.1412V9.57288C87.1566 8.00286 86.9887 6.953 86.6504 6.43761C86.2114 5.74327 85.2663 5.3949 83.8149 5.3949V4.93201L88.7471 5.0871C89.0589 5.0871 90.0017 5.06085 91.6017 5.01075L93.7176 4.93439V5.39729C92.3382 5.39729 91.4266 5.73134 90.9924 6.40182C90.6614 6.9172 90.4935 7.93366 90.4935 9.45358V18.492H106.806V9.56811C106.806 7.97184 106.657 6.92913 106.353 6.43999C105.918 5.74565 105 5.39729 103.582 5.39729V4.93439C104.093 4.93439 105.045 4.96064 106.437 5.01075L108.514 5.0871C108.747 5.0871 109.699 5.06085 111.369 5.01075L113.484 4.93439V5.39729C112.254 5.39729 111.388 5.63589 110.889 6.1131C110.39 6.59032 110.145 7.43259 110.145 8.64232V28.1125C110.145 29.7351 110.301 30.7921 110.611 31.2812C111.05 31.9756 111.995 32.3239 113.446 32.3239L113.484 32.7486C113.043 32.7486 112.105 32.7224 110.661 32.6723L108.497 32.5912Z" fill="black"/>
<path d="M129.917 22.083C129.917 20.2553 129.567 18.6829 128.869 17.3705C127.988 15.748 126.707 14.9367 125.023 14.9367C123.625 14.9367 122.394 15.7098 121.334 17.2536C120.376 18.5922 119.844 20.0095 119.741 21.5032L119.664 22.5841H129.917V22.083ZM133.141 23.2426H119.664V23.7842L119.702 24.209C119.909 26.6046 120.609 28.5754 121.799 30.1192C123.171 31.9231 124.997 32.8226 127.276 32.8226C128.751 32.8226 130.435 32.2691 132.325 31.1619L132.481 31.5103C130.644 32.6938 128.585 33.2879 126.307 33.2879C123.38 33.2879 120.998 32.3931 119.16 30.6036C117.323 28.814 116.401 26.4638 116.401 23.5528C116.401 21.4411 116.946 19.5991 118.033 18.0291C119.199 16.3302 120.777 15.2612 122.771 14.8222C123.704 14.617 124.623 14.512 125.529 14.512C127.988 14.512 129.893 15.3114 131.239 16.9076C132.508 18.4013 133.141 20.3984 133.141 22.8966V23.2426Z" fill="black"/>
<path d="M146.088 16.4041C145.111 16.4041 144.166 16.7978 143.252 17.5828C142.341 18.3607 141.88 19.2435 141.88 20.2218V29.5441C141.88 31.3408 142.773 32.2428 144.56 32.2428V32.7438C144.224 32.7438 143.432 32.7176 142.19 32.6675H140.326C140.143 32.6675 139.354 32.6675 137.956 32.6675L136.13 32.7438V32.2428C137.917 32.2428 138.81 31.1619 138.81 28.9977V19.4965C138.81 17.9503 138.375 17.1796 137.509 17.1796C137.128 17.1796 136.629 17.256 136.015 17.411L135.938 16.91C138.1 16.1369 140.081 15.2755 141.88 14.3211V19.4201L142.535 17.9909C143.953 15.6478 145.577 14.4762 147.402 14.4762C147.997 14.4762 148.549 14.5669 149.065 14.7458V18.3774C148.504 17.0627 147.506 16.4041 146.088 16.4041Z" fill="black"/>
<path d="M160.719 15.5547C158.855 15.5547 157.223 16.354 155.825 17.9574V31.7035C156.991 32.4503 158.26 32.825 159.632 32.825C161.961 32.825 163.775 31.8848 165.07 29.9975C166.236 28.3439 166.819 26.3086 166.819 23.8796C166.819 21.6057 166.38 19.7327 165.5 18.2652C164.432 16.4566 162.842 15.5547 160.719 15.5547ZM160.251 33.0946C159.371 33.0946 158.437 33.0039 157.454 32.825L152.834 31.9731V7.16531C152.834 5.4211 152.342 4.54542 151.358 4.54542C151.126 4.54542 150.684 4.60984 150.039 4.73869L149.921 4.27579C151.968 3.58145 153.935 2.72963 155.825 1.7251V17.4492C156.964 16.4566 157.883 15.7742 158.584 15.4139C159.567 14.8914 160.668 14.6289 161.885 14.6289C164.37 14.6289 166.344 15.402 167.807 16.9457C169.271 18.4919 170.002 20.5129 170.002 23.0111C170.002 26.0509 169.134 28.4895 167.4 30.3315C165.663 32.1736 163.281 33.0946 160.251 33.0946Z" fill="black"/>
<path d="M64.1632 22.6246C63.3092 22.8298 62.4552 23.1018 61.5988 23.4358C59.8116 24.1564 58.6481 24.7243 58.1036 25.1347C56.9377 25.9842 56.3548 27.1056 56.3548 28.4967C56.3548 30.9185 57.4295 32.1282 59.5789 32.1282C61.0278 32.1282 62.5559 31.3051 64.1632 29.6563V22.6246ZM65.0172 33.4406C64.6813 32.9514 64.4079 32.2547 64.2016 31.3552C64.1488 31.15 64.072 30.7897 63.9689 30.2743C61.9754 32.2571 59.8907 33.2497 57.715 33.2497C55.6183 33.2497 54.2054 32.3358 53.4809 30.501C53.2218 29.8567 53.0923 29.2387 53.0923 28.6398C53.0923 27.3776 53.8551 26.2824 55.3832 25.3495C56.2108 24.8603 57.583 24.3068 59.4997 23.6888L64.1608 22.2142V19.1529C64.1608 17.967 63.9137 17.003 63.4219 16.249C62.8534 15.3734 61.997 14.9367 60.8575 14.9367C60.0299 14.9367 59.2526 15.1682 58.5282 15.6382C57.7006 16.1536 57.2856 16.8169 57.2856 17.621C57.2856 18.1102 57.4031 18.7353 57.6358 19.4893L54.8387 20.3841C54.7619 20.1789 54.6971 19.8568 54.6444 19.4177C54.6444 18.0004 55.6279 16.7787 57.595 15.748C59.303 14.846 60.9751 14.3951 62.6063 14.3951C63.9521 14.3951 65.034 14.7936 65.8496 15.5929C66.6652 16.3922 67.073 17.4612 67.073 18.7997V28.8832C67.073 30.3244 67.6032 31.0474 68.6659 31.0474C68.9778 31.0474 69.4168 30.9185 69.9853 30.6608L70.1028 30.971L65.0172 33.4406Z" fill="black"/>
<path d="M144.593 41.9802H25.4067V42.8249H144.593V41.9802Z" fill="#75B051"/>
</g>
<defs>
<clipPath id="clip0">
<rect width="170" height="59" fill="white"/>
</clipPath>
</defs>
</svg>
